PathFileType	4	(X/Y/Z)	Patient5_TMGait_0pt45_1_left_08.trc.trc
DataRate	CameraRate	NumFrames	NumMarkers	Units	OrigDataRate	OrigDataStartFrame	OrigNumFrames
57.851239669421	57.851239669421	4	32	mm	57.851239669421	71	       141
Frame#	Time	R.ASIS			L.ASIS			Chest			R.Shoulder			Neck			L.Shoulder			L.Elbow			L.Wrist			R.Elbow			R.Wrist			L.Thigh.Superior			L.Thigh.Lateral			L.Thigh.Inferior			L.Patella			L.Shank.Superior			L.Shank.Lateral			L.Shank.Inferior			L.Heel			L.Midfoot.Lateral			L.Midfoot.Superior			L.Toe			R.Thigh.Superior			R.Thigh.Lateral			R.Thigh.Inferior			R.Patella			R.Shank.Superior			R.Shank.Lateral			R.Shank.Inferior			R.Heel			R.Midfoot.Lateral			R.Midfoot.Superior			R.Toe			
		X1	Y1	Z1	X2	Y2	Z2	X3	Y3	Z3	X4	Y4	Z4	X5	Y5	Z5	X6	Y6	Z6	X7	Y7	Z7	X8	Y8	Z8	X9	Y9	Z9	X10	Y10	Z10	X11	Y11	Z11	X12	Y12	Z12	X13	Y13	Z13	X14	Y14	Z14	X15	Y15	Z15	X16	Y16	Z16	X17	Y17	Z17	X18	Y18	Z18	X19	Y19	Z19	X20	Y20	Z20	X21	Y21	Z21	X22	Y22	Z22	X23	Y23	Z23	X24	Y24	Z24	X25	Y25	Z25	X26	Y26	Z26	X27	Y27	Z27	X28	Y28	Z28	X29	Y29	Z29	X30	Y30	Z30	X31	Y31	Z31	X32	Y32	Z32	

71	12.960000000000	1027.622875106137	1023.566348419926	523.884078886021	1024.652985242523	963.964676271676	275.273780139704	1079.056024339509	1448.621981033968	388.929777794045	955.527385175060	1517.389210360628	536.719364331561	962.356952072763	1571.351045682054	351.492769832844	1051.283743827148	1509.760008959536	186.583389480662	1039.286001981590	1179.725793304495	66.186133787465	1195.317630708615	939.708465641135	100.422268037934	845.669860829773	1203.775690730789	672.073680586658	1070.076206110454	1021.267696987200	645.135234685639	1028.455194924353	738.541558977748	285.823377392637	944.795842597851	674.097734665583	252.187399962828	1011.204701255791	610.481579552831	313.233850407079	995.151284766380	494.533212471267	323.573455459159	939.174826131855	397.909773746042	351.934831341293	862.043562414733	333.952536505602	278.998555611432	894.116036372241	279.593147347784	368.005974388214	738.193159735273	53.479908015927	379.515471205002	827.484650010803	28.217310186242	321.458558744810	924.571673587293	88.757415204623	365.173787339886	1030.492198246137	44.657393458310	374.349027665558	1106.604351804045	827.140828009810	564.651020821799	1061.753946988207	739.652507644045	637.204403406651	1155.919783694309	708.481799600940	568.864863800685	1195.566734019225	618.429571663533	616.646095225929	1161.487706506200	500.882562940916	591.088014717348	1091.393690569213	435.280303058762	675.935469170425	1150.440793339491	361.506247378709	600.999934350041	1040.723527062705	131.524958382875	587.614153229157	1121.156310382080	101.533905780424	659.079901689911	1223.376493417544	173.656864403201	642.909830947267	1328.636407623103	135.231008175433	640.102219373803	
72	12.977285714286	1026.941029459426	1022.134641896815	522.899781095878	1022.481823679783	963.416419198218	275.419573726152	1075.827820623979	1448.137417907466	389.027501778260	953.727671531604	1516.082887043941	538.415813801322	958.254435316945	1570.418811235661	353.136394287917	1045.102529485489	1509.272423876342	186.901933983074	1031.583352068247	1178.974071333928	66.889446320385	1187.498596057236	938.740668098068	100.127374755307	845.470636056456	1202.563741296334	675.144302549919	1068.813042317741	1019.057503886863	646.226019114641	1025.463254359903	737.564951907695	286.240763832002	941.148781557458	673.433276490733	252.815135844279	1007.125614127073	609.562090480174	313.684967548114	989.900005758081	493.555882150474	323.986876444728	933.397670106349	397.266332835319	352.295605241291	855.722608807158	333.885399487927	279.390578401454	887.590536681409	279.255143244289	368.405497471774	730.407214590754	53.524871239116	379.771150661052	819.652378418520	28.312540134807	321.627183158575	916.685925417627	88.685372587658	365.305102175069	1022.626597100950	44.662916256597	374.334803807629	1107.085332463687	825.125565001952	563.925568943786	1063.211115822648	737.285076629592	636.138548304688	1156.595569134653	706.320518513540	566.626234614968	1196.639799529332	616.098807830972	613.608887197934	1162.341774913618	498.584023693475	588.263107509871	1093.455115606997	432.778707658137	673.873473206254	1151.560135328525	359.219251997810	598.064834220384	1041.845012083472	129.139706584370	585.664458867106	1123.171173851967	99.231823248331	656.135267872011	1225.093927712298	171.497178621098	638.766473606274	1330.374521006018	133.184321590006	634.693109200074	
73	12.994571428571	1026.432986710125	1020.554326266562	522.193528491379	1020.598099432755	962.985517140955	275.688076097970	1072.770252589308	1447.666556575206	389.338247611635	952.133559748388	1514.788524803807	540.312293455832	954.299265246110	1569.490935984846	354.982595705500	1039.028560533264	1508.777702729848	187.431592188946	1023.707541284821	1178.309760366993	67.646014236380	1179.310544285653	937.702040246731	99.604119792235	845.673636861852	1201.279734281967	678.322305726638	1067.861246339044	1016.731957525647	647.104293369616	1022.678746884470	736.705245254745	286.591531000735	937.750737353216	672.877335260866	253.321726302113	1003.274569384843	608.711843438477	313.958747897346	984.818862011609	492.625534049262	324.201865287694	927.772733752410	396.689756248202	352.448595291373	849.453047506952	333.945094135904	279.637438605934	881.168494425687	278.989139336526	368.587291049984	722.645024974545	53.704459938402	379.923320824843	811.844784893213	28.403043486350	321.759199724877	908.858135613722	88.638795728062	365.335344224123	1014.751761242676	44.672561207953	374.311284795664	1107.120089630859	822.565104750145	563.257912637959	1063.708762619786	734.343270869675	634.982761058396	1156.368132358662	703.431324086622	564.492210933569	1196.494605837838	613.004505294033	610.703980225469	1162.214546727630	495.671705125492	585.410970996337	1094.411009850701	429.491231674245	671.530633183834	1151.939279150938	356.295550939477	595.029257325299	1042.786719343319	125.913914127715	583.159713887112	1124.808419784989	96.224791696961	652.897872865406	1226.328118862732	168.811600474224	634.686671655490	1331.693165261233	130.817036257186	629.685585185486	
74	13.011857142857	1026.078188146503	1018.826274691359	521.789279684455	1019.019338816961	962.709234561437	276.060376977290	1069.912088376498	1447.222224205938	389.889893967490	950.746979134184	1513.533550721720	542.412274020938	950.529408718497	1568.580549963895	357.038356447693	1033.151152476912	1508.283622739932	188.201998597574	1015.728867785544	1177.760536293988	68.470635347124	1170.768170278437	936.588882016582	98.879827754201	846.225426774604	1199.950477302078	681.562798969339	1067.274997685944	1014.457336572519	647.765008890494	1020.096623395310	735.977219469789	286.860516228175	934.570249545003	672.451760965998	253.701548691624	999.627736172209	607.936096924552	314.043187400083	979.902355622241	491.765854998041	324.199070414187	922.285467770230	396.203458339045	352.390928010917	843.218250744831	334.157320370536	279.747683188439	874.851564067417	278.816112426404	368.542330017004	714.908758036388	54.038710861796	379.963153740791	804.063422581805	28.498085125740	321.847569824781	901.098258948790	88.627301165397	365.256561441917	1006.868705023330	44.686346043479	374.276568962355	1106.755502735225	819.522407953502	562.583675457344	1063.313643149720	730.905778582251	633.781127650995	1155.281533398221	699.912226158551	562.476893373903	1195.215623137731	609.260073383438	607.954235427109	1161.173853604518	492.229169966783	582.547469547114	1094.326633400340	425.508949130734	668.938811179681	1151.627686014030	352.817046758616	591.891199119677	1043.530909835236	121.958366464739	580.086087904339	1126.084099564579	92.580657709140	649.320717043557	1227.112361027453	165.661861227572	630.612708239550	1332.631907894107	128.182887928946	624.970473677300	
